<svg width="36" height="36" viewBox="0 0 36 36" fill="none" xmlns="http://www.w3.org/2000/svg">
<path d="M29.5919 5.79656L11.2755 2.56219C10.762 2.4731 10.2342 2.59124 9.80764 2.89069C9.38113 3.19014 9.09075 3.64649 9.00015 4.15969L4.81655 27.9253C4.77163 28.18 4.77732 28.441 4.8333 28.6935C4.88927 28.9459 4.99444 29.1849 5.14279 29.3967C5.29114 29.6085 5.47976 29.789 5.69789 29.9279C5.91602 30.0669 6.15937 30.1614 6.41405 30.2063L24.7305 33.4406C24.8446 33.4614 24.9604 33.4718 25.0764 33.4716C25.5373 33.4679 25.9823 33.3025 26.3338 33.0045C26.6853 32.7064 26.9212 32.2944 27.0001 31.8403L31.1837 8.07469C31.2738 7.56162 31.1568 7.03378 30.8584 6.60678C30.56 6.17979 30.1046 5.88844 29.5919 5.79656ZM29.5314 7.785L25.3478 31.5506C25.3416 31.5872 25.3282 31.6222 25.3084 31.6536C25.2886 31.6849 25.2628 31.7121 25.2325 31.7334C25.1715 31.776 25.0962 31.7927 25.023 31.7798L6.70093 28.5469C6.66359 28.541 6.62783 28.5276 6.59579 28.5076C6.56374 28.4875 6.53606 28.4612 6.5144 28.4302C6.49274 28.3993 6.47755 28.3642 6.46973 28.3273C6.46191 28.2903 6.46163 28.2521 6.4689 28.215L10.6525 4.44938C10.6587 4.41281 10.6721 4.37783 10.6919 4.34645C10.7117 4.31508 10.7375 4.28793 10.7678 4.26656C10.8304 4.2229 10.9077 4.20572 10.983 4.21875L29.2994 7.45313C29.3367 7.45904 29.3725 7.47241 29.4045 7.49245C29.4366 7.51249 29.4642 7.53879 29.4859 7.56976C29.5076 7.60074 29.5227 7.63577 29.5306 7.67275C29.5384 7.70973 29.5387 7.74791 29.5314 7.785ZM26.1719 10.6186C26.1387 10.8148 26.0372 10.993 25.8854 11.1217C25.7336 11.2503 25.5412 11.3212 25.3422 11.3217C25.2927 11.3218 25.2433 11.3176 25.1945 11.3091L13.5226 9.2475C13.4107 9.23146 13.303 9.19306 13.2062 9.13458C13.1093 9.07611 13.0252 8.99875 12.9589 8.90711C12.8925 8.81547 12.8453 8.71142 12.8199 8.60115C12.7946 8.49089 12.7917 8.37665 12.8114 8.26524C12.8311 8.15383 12.8731 8.04753 12.9347 7.95265C12.9963 7.85777 13.0764 7.77626 13.1702 7.71295C13.264 7.64965 13.3695 7.60586 13.4805 7.58417C13.5916 7.56248 13.7059 7.56335 13.8166 7.58672L25.4884 9.64688C25.7075 9.68602 25.9022 9.81008 26.0301 9.99207C26.1581 10.1741 26.2091 10.3992 26.1719 10.6186ZM25.3914 15.0469C25.3582 15.2431 25.2568 15.4213 25.1049 15.5499C24.9531 15.6786 24.7607 15.7495 24.5617 15.75C24.5145 15.7496 24.4674 15.7449 24.4211 15.7359L12.7492 13.6758C12.5288 13.6368 12.3329 13.5119 12.2046 13.3284C12.0763 13.145 12.0261 12.9182 12.0651 12.6977C12.104 12.4773 12.229 12.2814 12.4124 12.1531C12.5958 12.0248 12.8227 11.9746 13.0431 12.0136L24.715 14.0752C24.9327 14.1159 25.1257 14.2407 25.2522 14.4225C25.3788 14.6043 25.4288 14.8285 25.3914 15.0469ZM18.782 18.4486C18.7473 18.6438 18.645 18.8205 18.4931 18.9478C18.3411 19.0751 18.1492 19.1448 17.9509 19.1447C17.9014 19.1445 17.8521 19.1403 17.8033 19.132L11.9687 18.1013C11.8567 18.0852 11.7491 18.0468 11.6523 17.9883C11.5554 17.9299 11.4713 17.8525 11.405 17.7609C11.3386 17.6692 11.2914 17.5652 11.266 17.4549C11.2407 17.3446 11.2378 17.2304 11.2575 17.119C11.2772 17.0076 11.3192 16.9013 11.3808 16.8064C11.4424 16.7115 11.5225 16.63 11.6163 16.5667C11.7101 16.5034 11.8156 16.4596 11.9266 16.4379C12.0377 16.4162 12.1519 16.4171 12.2626 16.4405L18.0972 17.4698C18.2065 17.4895 18.3109 17.5305 18.4043 17.5906C18.4978 17.6507 18.5784 17.7286 18.6416 17.82C18.7049 17.9113 18.7495 18.0142 18.7728 18.1228C18.7962 18.2314 18.7979 18.3436 18.7778 18.4528L18.782 18.4486Z" fill="#DF9423"/>
</svg>
