<svg width="156" height="35" viewBox="0 0 156 35" fill="none" xmlns="http://www.w3.org/2000/svg">
<g clip-path="url(#clip0_55_1317)">
<path d="M57.3034 28.9716L53.573 23.6878C53.3397 23.7101 53.1052 23.7191 52.8709 23.7146H48.7517V28.9716H45.3618V10.931H52.8709C57.668 10.931 60.6391 13.3525 60.6391 17.3466C60.6391 20.0808 59.2319 22.0913 56.755 23.0444L60.9525 28.9716H57.3034ZM52.7142 13.7665H48.7517V20.9565H52.7142C55.6853 20.9565 57.2341 19.6162 57.2341 17.3466C57.2341 15.077 55.6853 13.7665 52.7142 13.7665Z" fill="#1E3947"/>
<path d="M77.1456 22.9402H66.2225C66.6112 24.9506 68.3077 26.2403 70.7424 26.2403C71.4428 26.2685 72.1413 26.1504 72.7923 25.8938C73.4434 25.6372 74.0325 25.2479 74.5211 24.7511L76.2688 26.7347C75.0182 28.2031 73.0626 28.9775 70.6641 28.9775C65.9965 28.9775 62.9712 26.014 62.9712 21.9156C62.9712 17.8172 66.0206 14.8804 70.1669 14.8804C74.2348 14.8804 77.2089 17.6891 77.2089 21.993C77.1999 22.2343 77.1727 22.6304 77.1456 22.9402ZM66.1954 20.8016H74.0902C73.828 18.818 72.2822 17.4509 70.1518 17.4509C69.1874 17.4173 68.2454 17.7431 67.5126 18.3637C66.7798 18.9843 66.3097 19.8545 66.1954 20.8016Z" fill="#1E3947"/>
<path d="M79.1826 21.9096C79.1826 17.7874 82.3104 14.8745 86.7158 14.8745C89.4277 14.8745 91.5943 15.9825 92.661 18.0704L90.16 19.512C89.8038 18.9196 89.2953 18.4312 88.686 18.0963C88.0768 17.7615 87.3886 17.5922 86.6917 17.6057C84.2811 17.6057 82.4731 19.2558 82.4731 21.9096C82.4731 24.5634 84.2992 26.2135 86.6917 26.2135C87.3886 26.227 88.0768 26.0578 88.686 25.7229C89.2953 25.3881 89.8038 24.8996 90.16 24.3073L92.661 25.7489C91.5943 27.8129 89.4277 28.9716 86.7158 28.9716C82.3104 28.9716 79.1826 26.0348 79.1826 21.9096Z" fill="#1E3947"/>
<path d="M103.536 15.0532V18.121C103.287 18.0727 103.033 18.0468 102.779 18.0436C100.303 18.0436 98.7387 19.4881 98.7387 22.2968V28.9716H95.4844V15.2081H98.588V17.2185C99.5191 15.777 101.21 15.0532 103.536 15.0532Z" fill="#1E3947"/>
<path d="M119.91 15.0293V28.7869H116.809V27.0356C115.767 28.2984 114.121 28.9686 112.323 28.9686C108.752 28.9686 106.326 27.0356 106.326 22.8866V15.0264H109.587V22.4487C109.587 24.9477 110.792 26.1331 112.844 26.1331C115.113 26.1331 116.653 24.7421 116.653 21.9841V15.0264L119.91 15.0293Z" fill="#1E3947"/>
<path d="M127.449 15.2081H124.189V28.9716H127.449V15.2081Z" fill="#1E3947"/>
<path d="M140.096 28.0453C139.313 28.6618 138.14 28.9716 136.965 28.9716C133.916 28.9716 132.168 27.3751 132.168 24.3341V17.71H129.875V15.1306H132.168V11.9883H135.428V15.1306H139.156V17.71H135.428V24.2626C135.428 25.5999 136.106 26.3237 137.357 26.3237C138.012 26.3381 138.652 26.1358 139.177 25.7489L140.096 28.0453Z" fill="#1E3947"/>
<path d="M141.166 21.9096C141.166 17.7874 144.293 14.8745 148.569 14.8745C152.899 14.8745 156 17.7874 156 21.9096C156 26.0318 152.899 28.9716 148.569 28.9716C144.299 28.9716 141.166 26.0348 141.166 21.9096ZM152.715 21.9096C152.715 19.2796 150.944 17.6057 148.569 17.6057C146.195 17.6057 144.45 19.2796 144.45 21.9096C144.45 24.5396 146.222 26.2135 148.569 26.2135C150.916 26.2135 152.715 24.5396 152.715 21.9096Z" fill="#1E3947"/>
<path d="M125.819 6.42456L126.09 7.46702C126.23 8.00603 126.514 8.49798 126.912 8.89147C127.31 9.28496 127.808 9.56552 128.353 9.70385L129.405 9.97191L128.353 10.24C127.808 10.3783 127.31 10.6589 126.912 11.0524C126.514 11.4458 126.23 11.9378 126.09 12.4768L125.819 13.5193L125.548 12.4768C125.407 11.9379 125.122 11.4461 124.724 11.0527C124.325 10.6594 123.828 10.3787 123.282 10.24L122.23 9.97191L123.282 9.70385C123.828 9.56512 124.325 9.28448 124.724 8.8911C125.122 8.49771 125.407 8.00597 125.548 7.46702L125.819 6.42456Z" fill="url(#paint0_linear_55_1317)"/>
<path d="M122.703 6.0314L122.794 6.37988C122.841 6.56137 122.937 6.72701 123.071 6.85954C123.205 6.99207 123.373 7.08665 123.556 7.13343L123.909 7.22279L123.556 7.31512C123.373 7.36078 123.205 7.45462 123.071 7.58674C122.936 7.71885 122.841 7.88432 122.794 8.06569L122.703 8.41715L122.613 8.06569C122.566 7.88432 122.471 7.71885 122.336 7.58674C122.202 7.45462 122.034 7.36078 121.851 7.31512L121.495 7.22279L121.851 7.13343C122.034 7.08665 122.202 6.99207 122.336 6.85954C122.47 6.72701 122.566 6.56137 122.613 6.37988L122.703 6.0314Z" fill="url(#paint1_linear_55_1317)"/>
<path d="M12.7251 7.93762L12.8577 8.4529C12.9271 8.71984 13.0677 8.96347 13.2649 9.15836C13.4621 9.35325 13.7086 9.49227 13.9786 9.56089L14.5029 9.69492L13.9786 9.82895C13.7086 9.89757 13.4621 10.0366 13.2649 10.2315C13.0677 10.4264 12.9271 10.67 12.8577 10.9369L12.7251 11.4522L12.5895 10.9369C12.5201 10.67 12.3794 10.4264 12.1823 10.2315C11.9851 10.0366 11.7386 9.89757 11.4686 9.82895L10.9473 9.69492L11.4686 9.56089C11.7386 9.49227 11.9851 9.35325 12.1823 9.15836C12.3794 8.96347 12.5201 8.71984 12.5895 8.4529L12.7251 7.93762Z" fill="url(#paint2_linear_55_1317)"/>
<path d="M11.3301 7.73508L11.3753 7.91081C11.3993 8.00019 11.4468 8.0817 11.5129 8.14709C11.5791 8.21248 11.6615 8.25941 11.752 8.28311L11.9267 8.32779L11.752 8.37246C11.6615 8.39617 11.5791 8.4431 11.5129 8.50849C11.4468 8.57388 11.3993 8.65539 11.3753 8.74477L11.3301 8.91753L11.2849 8.74477C11.2609 8.65539 11.2135 8.57388 11.1473 8.50849C11.0811 8.4431 10.9987 8.39617 10.9083 8.37246L10.7305 8.32779L10.9083 8.28311C10.9987 8.25941 11.0811 8.21248 11.1473 8.14709C11.2135 8.0817 11.2609 8.00019 11.2849 7.91081L11.3301 7.73508Z" fill="url(#paint3_linear_55_1317)"/>
<path d="M17.2779 18.7971C19.4663 18.7971 21.2403 17.0436 21.2403 14.8804C21.2403 12.7173 19.4663 10.9637 17.2779 10.9637C15.0895 10.9637 13.3154 12.7173 13.3154 14.8804C13.3154 17.0436 15.0895 18.7971 17.2779 18.7971Z" fill="url(#paint4_linear_55_1317)"/>
<path d="M26.1641 20.1642C27.4489 20.1642 28.4904 19.1348 28.4904 17.8649C28.4904 16.595 27.4489 15.5655 26.1641 15.5655C24.8794 15.5655 23.8379 16.595 23.8379 17.8649C23.8379 19.1348 24.8794 20.1642 26.1641 20.1642Z" fill="#1E3947"/>
<path d="M8.47029 20.1642C9.75504 20.1642 10.7965 19.1348 10.7965 17.8649C10.7965 16.595 9.75504 15.5655 8.47029 15.5655C7.18554 15.5655 6.14404 16.595 6.14404 17.8649C6.14404 19.1348 7.18554 20.1642 8.47029 20.1642Z" fill="#1E3947"/>
<path d="M23.3199 25.9246V31.5837H11.6646V25.9246C11.6646 24.3969 12.2785 22.9317 13.3714 21.8514C14.4643 20.7711 15.9466 20.1642 17.4922 20.1642C18.258 20.1636 19.0163 20.3125 19.7237 20.6023C20.4311 20.8921 21.0736 21.3172 21.6144 21.853C22.1561 22.3871 22.5857 23.0217 22.8784 23.7205C23.1711 24.4193 23.3212 25.1683 23.3199 25.9246Z" fill="url(#paint5_linear_55_1317)"/>
<path d="M29.5451 27.0326C29.2186 27.4292 28.8716 27.809 28.5055 28.1704C27.4203 29.2449 26.1806 30.1552 24.8263 30.8719V25.9276C24.8258 24.7122 24.5149 23.5167 23.9224 22.4517C25.4361 22.4709 26.8821 23.075 27.9511 24.1346C28.252 24.4312 28.5188 24.7599 28.7466 25.1145C29.1287 25.7005 29.3993 26.3505 29.5451 27.0326Z" fill="#1E3947"/>
<path d="M11.0528 22.4577C10.4619 23.5211 10.151 24.7143 10.1488 25.9276V30.8718C8.79537 30.1579 7.5565 29.2495 6.47263 28.1763C6.00797 27.7123 5.57321 27.2198 5.1709 26.702C5.35139 26.0415 5.65155 25.4189 6.0568 24.8643C6.59526 24.1142 7.30837 23.5031 8.13595 23.0827C8.96352 22.6623 9.88127 22.4449 10.8117 22.4487C10.881 22.4487 10.9684 22.4517 11.0528 22.4577Z" fill="#1E3947"/>
<path d="M27.9601 6.9428L28.5055 6.4037C27.0599 4.97315 25.343 3.83849 23.4532 3.0647C21.5633 2.29091 19.5376 1.89319 17.492 1.89429C15.4468 1.89228 13.4212 2.2896 11.5317 3.06345C9.64225 3.8373 7.92601 4.97245 6.48154 6.4037C5.03357 7.83148 3.88516 9.5279 3.10227 11.3956C2.31938 13.2632 1.91741 15.2654 1.91945 17.287C1.91381 20.6954 3.0579 24.0084 5.17077 26.702C5.57689 27.2175 6.01463 27.7079 6.48154 28.1704C7.56572 29.2448 8.80448 30.1551 10.1577 30.8718C10.6473 31.1308 11.1502 31.3644 11.6644 31.5718H11.6855L11.7276 31.5867L11.9717 30.8629L11.6704 31.5688C13.5182 32.3029 15.4915 32.6791 17.483 32.6768C19.4744 32.6785 21.4476 32.3024 23.2956 31.5688C23.8094 31.363 24.3123 31.1314 24.8022 30.8748C26.1563 30.1591 27.396 29.2498 28.4814 28.1763C28.8475 27.815 29.1945 27.4352 29.521 27.0385C31.8025 24.2907 33.0476 20.8448 33.0435 17.29C33.0448 15.2687 32.6428 13.2671 31.8605 11.3996C31.0782 9.53206 29.9309 7.83539 28.4844 6.40667L27.939 6.94579L27.3936 7.48489C28.6971 8.77182 29.7309 10.3004 30.4357 11.9829C31.1404 13.6655 31.5024 15.4689 31.5007 17.29C31.5056 20.4916 30.3851 23.5953 28.3308 26.0705C28.037 26.4264 27.7253 26.7674 27.3967 27.0922C26.4193 28.0605 25.3024 28.8806 24.0821 29.5256C23.6403 29.7589 23.1867 29.9696 22.7231 30.157C21.0615 30.8238 19.2854 31.1676 17.492 31.1697C15.6977 31.1678 13.9206 30.824 12.258 30.157H12.2369L12.1947 30.1421L11.9506 30.8718L12.252 30.1659C11.7883 29.9808 11.3356 29.77 10.896 29.5345C9.67531 28.8925 8.55819 28.0744 7.58139 27.107C7.15836 26.6907 6.76281 26.248 6.39717 25.7816C4.49584 23.3547 3.46543 20.3715 3.46827 17.3019C3.46719 15.4807 3.82967 13.6771 4.53496 11.9946C5.24024 10.312 6.27447 8.78358 7.57837 7.4968L7.59947 7.47893L7.58139 7.4968C8.88221 6.20662 10.4283 5.18348 12.1308 4.48625C13.8332 3.78902 15.6583 3.43147 17.5011 3.43417C19.3442 3.43205 21.1696 3.78986 22.8724 4.48705C24.5753 5.18424 26.122 6.20706 27.4238 7.4968L27.9601 6.9428Z" fill="#1E3947"/>
<path d="M3.88111 27.6372C3.92833 27.5879 3.95707 27.524 3.96255 27.4563C3.96803 27.3886 3.94992 27.3211 3.91124 27.2649C1.73342 24.3843 0.55977 20.8831 0.566509 17.287C0.563968 15.0908 1.00027 12.9156 1.85038 10.8864C2.7005 8.85727 3.94767 7.01403 5.52032 5.46252L5.54443 5.44167C7.11269 3.89324 8.97422 2.66541 11.0227 1.8283C13.0711 0.99119 15.2664 0.561208 17.483 0.562931C19.7057 0.560418 21.9069 0.99197 23.9604 1.83279C26.0138 2.67361 27.879 3.90713 29.4487 5.46252C31.0214 7.01403 32.2685 8.85727 33.1186 10.8864C33.9688 12.9156 34.4051 15.0908 34.4025 17.287C34.4088 21.1481 33.057 24.8911 30.5787 27.8755C30.2231 28.3044 29.8465 28.7184 29.4487 29.1116C28.2693 30.2767 26.923 31.2642 25.4531 32.0424C24.9215 32.3228 24.3754 32.5753 23.8169 32.7989H23.7988C21.7875 33.5991 19.6391 34.0087 17.471 34.0052C15.3099 34.0111 13.1678 33.6066 11.1612 32.8138C10.6075 32.5916 10.0663 32.3401 9.54003 32.0602C9.11214 31.8339 8.6943 31.5907 8.28651 31.3305C8.23244 31.2948 8.16759 31.2786 8.10284 31.2845C8.0381 31.2905 7.9774 31.3183 7.93094 31.3633C7.90301 31.3942 7.8819 31.4305 7.86896 31.4698C7.85602 31.5092 7.85153 31.5509 7.85579 31.5921C7.86004 31.6333 7.87294 31.6731 7.89366 31.7091C7.91439 31.7451 7.94248 31.7765 7.97614 31.8011C8.39498 32.0722 8.82889 32.3253 9.26883 32.5577C9.81801 32.8508 10.3834 33.1133 10.9623 33.344H10.9834C13.0525 34.1658 15.2622 34.5865 17.492 34.583C19.7293 34.5859 21.9462 34.1632 24.0218 33.338C24.5998 33.1076 25.1651 32.8471 25.7153 32.5577C27.2358 31.7546 28.6279 30.7339 29.8465 29.5286C30.2563 29.1235 30.648 28.6946 31.0156 28.2508C33.5738 25.1684 34.97 21.3037 34.966 17.3168C34.9672 15.0483 34.5153 12.8018 33.6362 10.7062C32.7572 8.61067 31.4683 6.70724 29.8434 5.1051C28.2205 3.49764 26.2923 2.22286 24.1696 1.35394C22.0469 0.485021 19.7715 0.0390692 17.474 0.0416986C15.1789 0.0407043 12.9063 0.487459 10.7862 1.35634C8.66621 2.22522 6.74052 3.49915 5.11956 5.1051C3.52852 6.66849 2.25688 8.52004 1.37407 10.5587C0.46432 12.6877 -0.00296181 14.9759 1.41254e-05 17.287C-0.00195367 21.0021 1.21149 24.6181 3.45925 27.5955C3.485 27.6257 3.51657 27.6505 3.5521 27.6685C3.58764 27.6865 3.62644 27.6973 3.66626 27.7004C3.70607 27.7034 3.7461 27.6986 3.78402 27.6863C3.82193 27.6739 3.85699 27.6542 3.88713 27.6283L3.88111 27.6372Z" fill="url(#paint6_linear_55_1317)"/>
<path d="M0.682363 32.916L6.3543 27.3096L8.10787 29.0429L2.43593 34.6493C2.20368 34.8789 1.88867 35.0079 1.56021 35.0079C1.23176 35.0079 0.916747 34.8789 0.684492 34.6493C0.569032 34.5358 0.477373 34.4008 0.414763 34.2521C0.352153 34.1035 0.319826 33.9441 0.319628 33.7831C0.31943 33.6221 0.351366 33.4626 0.413611 33.3138C0.475855 33.165 0.567182 33.0299 0.682363 32.916Z" fill="#0B1928"/>
<path d="M0.682363 32.916L6.3543 27.3096L8.10787 29.0429L2.43593 34.6493C2.20368 34.8789 1.88867 35.0079 1.56021 35.0079C1.23176 35.0079 0.916747 34.8789 0.684492 34.6493C0.569032 34.5358 0.477373 34.4008 0.414763 34.2521C0.352153 34.1035 0.319826 33.9441 0.319628 33.7831C0.31943 33.6221 0.351366 33.4626 0.413611 33.3138C0.475855 33.165 0.567182 33.0299 0.682363 32.916Z" fill="#1E3947"/>
</g>
<defs>
<linearGradient id="paint0_linear_55_1317" x1="122.23" y1="9.97191" x2="129.405" y2="9.97191" gradientUnits="userSpaceOnUse">
<stop stop-color="#2974E9"/>
<stop offset="1" stop-color="#1AD7BE"/>
</linearGradient>
<linearGradient id="paint1_linear_55_1317" x1="121.495" y1="7.22279" x2="123.909" y2="7.22279" gradientUnits="userSpaceOnUse">
<stop stop-color="#2974E9"/>
<stop offset="1" stop-color="#1AD7BE"/>
</linearGradient>
<linearGradient id="paint2_linear_55_1317" x1="10.9473" y1="9.68896" x2="14.5029" y2="9.68896" gradientUnits="userSpaceOnUse">
<stop stop-color="#2974E9"/>
<stop offset="1" stop-color="#1AD7BE"/>
</linearGradient>
<linearGradient id="paint3_linear_55_1317" x1="10.7305" y1="8.32779" x2="11.9267" y2="8.32779" gradientUnits="userSpaceOnUse">
<stop stop-color="#2974E9"/>
<stop offset="1" stop-color="#1AD7BE"/>
</linearGradient>
<linearGradient id="paint4_linear_55_1317" x1="13.3154" y1="14.8804" x2="21.2403" y2="14.8804" gradientUnits="userSpaceOnUse">
<stop stop-color="#2974E9"/>
<stop offset="1" stop-color="#1AD7BE"/>
</linearGradient>
<linearGradient id="paint5_linear_55_1317" x1="11.6646" y1="25.868" x2="23.3199" y2="25.868" gradientUnits="userSpaceOnUse">
<stop stop-color="#2974E9"/>
<stop offset="1" stop-color="#1AD7BE"/>
</linearGradient>
<linearGradient id="paint6_linear_55_1317" x1="1.41254e-05" y1="17.287" x2="34.9781" y2="17.287" gradientUnits="userSpaceOnUse">
<stop stop-color="#2974E9"/>
<stop offset="1" stop-color="#1AD7BE"/>
</linearGradient>
<clipPath id="clip0_55_1317">
<rect width="156" height="35" fill="white"/>
</clipPath>
</defs>
</svg>
