<svg width="154" height="154" viewBox="0 0 154 154" fill="none" xmlns="http://www.w3.org/2000/svg">
<path fill-rule="evenodd" clip-rule="evenodd" d="M73.7918 17.6459C66.4186 17.6459 59.1177 19.0981 52.3057 21.9197C45.4938 24.7413 39.3043 28.877 34.0907 34.0906C28.8771 39.3042 24.7414 45.4937 21.9198 52.3056C19.0982 59.1175 17.646 66.4185 17.646 73.7917C17.646 81.1649 19.0982 88.4659 21.9198 95.2778C24.7414 102.09 28.8771 108.279 34.0907 113.493C39.3043 118.706 45.4938 122.842 52.3057 125.664C59.1177 128.485 66.4186 129.938 73.7918 129.938C88.6826 129.938 102.964 124.022 113.493 113.493C124.022 102.963 129.938 88.6825 129.938 73.7917C129.938 58.9009 124.022 44.62 113.493 34.0906C102.964 23.5612 88.6826 17.6459 73.7918 17.6459ZM8.021 73.7917C8.021 37.4734 37.4735 8.02087 73.7918 8.02087C110.11 8.02087 139.563 37.4734 139.563 73.7917C139.563 90.2184 133.537 105.246 123.579 116.771L144.568 137.766C145.04 138.206 145.42 138.738 145.683 139.328C145.946 139.918 146.087 140.556 146.099 141.202C146.11 141.848 145.991 142.49 145.749 143.089C145.507 143.688 145.147 144.233 144.69 144.69C144.233 145.147 143.688 145.507 143.089 145.749C142.49 145.991 141.848 146.11 141.202 146.098C140.556 146.087 139.919 145.946 139.328 145.683C138.738 145.42 138.207 145.04 137.766 144.568L116.771 123.579C104.841 133.915 89.5768 139.592 73.7918 139.563C37.4735 139.563 8.021 110.11 8.021 73.7917Z" fill="#848EA0" fill-opacity="0.1"/>
</svg>
